<svg width="29.000000" height="29.000000" viewBox="0 0 29 29" fill="none" xmlns="http://www.w3.org/2000/svg" xmlns:xlink="http://www.w3.org/1999/xlink">
	<desc>
			Created with Pixso.
	</desc>
	<defs>
		<clipPath id="clip75_830">
			<rect id="icons8-tiktok 1" width="29.000000" height="29.000000" fill="white" fill-opacity="0"/>
		</clipPath>
	</defs>
	<rect id="icons8-tiktok 1" width="29.000000" height="29.000000" fill="#FFFFFF" fill-opacity="0"/>
	<g clip-path="url(#clip75_830)">
		<g style="mix-blend-mode:normal">
			<path id="Vector" d="M23.78 2.31L5.22 2.31C3.62 2.31 2.32 3.62 2.32 5.21L2.32 23.77C2.32 25.37 3.62 26.67 5.22 26.67L23.78 26.67C25.37 26.67 26.68 25.37 26.68 23.77L26.68 5.21C26.68 3.62 25.37 2.31 23.78 2.31ZM21.46 12.94C21.33 12.95 21.19 12.96 21.06 12.96C19.54 12.96 18.2 12.18 17.42 11C17.42 14.1 17.42 17.63 17.42 17.69C17.42 20.42 15.21 22.63 12.48 22.63C9.75 22.63 7.53 20.42 7.53 17.69C7.53 14.96 9.75 12.74 12.48 12.74C12.58 12.74 12.68 12.75 12.78 12.76L12.78 15.2C12.68 15.18 12.58 15.17 12.48 15.17C11.08 15.17 9.95 16.29 9.95 17.69C9.95 19.08 11.08 20.21 12.48 20.21C13.87 20.21 15.1 19.12 15.1 17.72C15.1 17.67 15.13 6.36 15.13 6.36L17.46 6.36C17.68 8.44 19.36 10.08 21.46 10.23L21.46 12.94Z" fill="#FFFFFF" fill-opacity="1.000000" fill-rule="nonzero"/>
		</g>
	</g>
</svg>
